<svg width="40" height="40" viewBox="0 0 40 40" fill="none" xmlns="http://www.w3.org/2000/svg">
<path d="M9.75004 28.4999C11.1667 27.4166 12.75 26.5624 14.5 25.9374C16.25 25.3124 18.0834 24.9999 20 24.9999C21.9167 24.9999 23.75 25.3124 25.5 25.9374C27.25 26.5624 28.8334 27.4166 30.25 28.4999C31.2223 27.361 31.9792 26.0694 32.5209 24.6249C33.0625 23.1805 33.3334 21.6388 33.3334 19.9999C33.3334 16.3055 32.0348 13.1596 29.4375 10.5624C26.8403 7.9652 23.6945 6.66659 20 6.66659C16.3056 6.66659 13.1598 7.9652 10.5625 10.5624C7.96532 13.1596 6.66671 16.3055 6.66671 19.9999C6.66671 21.6388 6.93754 23.1805 7.47921 24.6249C8.02087 26.0694 8.77782 27.361 9.75004 28.4999ZM20 21.6666C18.3612 21.6666 16.9792 21.1041 15.8542 19.9791C14.7292 18.8541 14.1667 17.4721 14.1667 15.8333C14.1667 14.1944 14.7292 12.8124 15.8542 11.6874C16.9792 10.5624 18.3612 9.99992 20 9.99992C21.6389 9.99992 23.0209 10.5624 24.1459 11.6874C25.2709 12.8124 25.8334 14.1944 25.8334 15.8333C25.8334 17.4721 25.2709 18.8541 24.1459 19.9791C23.0209 21.1041 21.6389 21.6666 20 21.6666ZM20 36.6666C17.6945 36.6666 15.5278 36.2291 13.5 35.3541C11.4723 34.4791 9.70837 33.2916 8.20837 31.7916C6.70837 30.2916 5.52087 28.5277 4.64587 26.4999C3.77087 24.4721 3.33337 22.3055 3.33337 19.9999C3.33337 17.6944 3.77087 15.5277 4.64587 13.4999C5.52087 11.4721 6.70837 9.70825 8.20837 8.20825C9.70837 6.70825 11.4723 5.52075 13.5 4.64575C15.5278 3.77075 17.6945 3.33325 20 3.33325C22.3056 3.33325 24.4723 3.77075 26.5 4.64575C28.5278 5.52075 30.2917 6.70825 31.7917 8.20825C33.2917 9.70825 34.4792 11.4721 35.3542 13.4999C36.2292 15.5277 36.6667 17.6944 36.6667 19.9999C36.6667 22.3055 36.2292 24.4721 35.3542 26.4999C34.4792 28.5277 33.2917 30.2916 31.7917 31.7916C30.2917 33.2916 28.5278 34.4791 26.5 35.3541C24.4723 36.2291 22.3056 36.6666 20 36.6666Z" fill="#1D1B20"/>
</svg>
